<?xml version="1.0" encoding="UTF-8"?>
<svg width="157px" height="36px" viewBox="0 0 157 36" version="1.1" xmlns="http://www.w3.org/2000/svg" xmlns:xlink="http://www.w3.org/1999/xlink">
    <!-- Generator: Sketch 50 (54983) - http://www.bohemiancoding.com/sketch -->
    <title>Logo</title>
    <desc>Created with Sketch.</desc>
    <defs>
        <path d="M8,28.8235294 L8,8 L22.8823529,8 L22.8823529,12.2352941 L13,12.2352941 L13,15.6176471 L15.8529412,15.6176471 C16.9902018,15.6176471 18.0539166,15.7352929 19.0441176,15.9705882 C20.0343187,16.2058835 20.8970551,16.5833307 21.6323529,17.1029412 C22.3676507,17.6225516 22.9460763,18.2941135 23.3676471,19.1176471 C23.7892178,19.9411806 24,20.9509744 24,22.1470588 C24,23.3627512 23.7745121,24.3921526 23.3235294,25.2352941 C22.8725468,26.0784356 22.2647097,26.7647032 21.5,27.2941176 C20.7352903,27.8235321 19.8529462,28.2107831 18.8529412,28.4558824 C17.8529362,28.7009816 16.8137309,28.8235294 15.7352941,28.8235294 L8,28.8235294 Z M15.3529412,24.5882353 C15.8235318,24.5882353 16.2745076,24.5441181 16.7058824,24.4558824 C17.1372571,24.3676466 17.5196062,24.2254912 17.8529412,24.0294118 C18.1862762,23.8333324 18.4509794,23.5833349 18.6470588,23.2794118 C18.8431382,22.9754887 18.9411765,22.6078453 18.9411765,22.1764706 C18.9411765,21.7254879 18.8431382,21.3480407 18.6470588,21.0441176 C18.4509794,20.7401946 18.1911781,20.5000009 17.8676471,20.3235294 C17.544116,20.1470579 17.1715707,20.0245101 16.75,19.9558824 C16.3284293,19.8872546 15.8921591,19.8529412 15.4411765,19.8529412 L13,19.8529412 L13,24.5882353 L15.3529412,24.5882353 Z" id="path-1"></path>
        <filter x="-31.2%" y="-24.0%" width="187.5%" height="167.2%" filterUnits="objectBoundingBox" id="filter-2">
            <feOffset dx="2" dy="2" in="SourceAlpha" result="shadowOffsetOuter1"></feOffset>
            <feGaussianBlur stdDeviation="2" in="shadowOffsetOuter1" result="shadowBlurOuter1"></feGaussianBlur>
            <feColorMatrix values="0 0 0 0 0   0 0 0 0 0   0 0 0 0 0  0 0 0 0.5 0" type="matrix" in="shadowBlurOuter1"></feColorMatrix>
        </filter>
    </defs>
    <g id="Welcome" stroke="none" stroke-width="1" fill="none" fill-rule="evenodd">
        <g id="Desktop" transform="translate(-20.000000, -15.000000)">
            <g id="Header">
                <g id="Logo" transform="translate(20.000000, 15.000000)">
                    <path d="M49.568,15.496 C49.568,16.3440042 49.3840018,17.1039966 49.016,17.776 C48.6479982,18.4480034 48.1400032,19.0119977 47.492,19.468 C46.8439968,19.9240023 46.0800044,20.2719988 45.2,20.512 C44.3199956,20.7520012 43.3680051,20.872 42.344,20.872 L41.936,20.872 L41.936,26.272 L38,26.272 L38,10.288 L42.608,10.288 C43.616005,10.288 44.5479957,10.391999 45.404,10.6 C46.2600043,10.808001 46.9959969,11.1239979 47.612,11.548 C48.2280031,11.9720021 48.7079983,12.5119967 49.052,13.168 C49.3960017,13.8240033 49.568,14.5999955 49.568,15.496 Z M45.776,15.52 C45.776,14.0479926 44.7280105,13.312 42.632,13.312 L41.936,13.312 L41.936,17.848 L42.584,17.848 C43.6240052,17.848 44.4159973,17.6400021 44.96,17.224 C45.5040027,16.8079979 45.776,16.2400036 45.776,15.52 Z M61.016,19.672 C60.5519977,20.9680065 60.0760024,22.0599956 59.588,22.948 C59.0999976,23.8360044 58.5840027,24.5599972 58.04,25.12 C57.4959973,25.6800028 56.928003,26.0879987 56.336,26.344 C55.743997,26.6000013 55.1040034,26.7519998 54.416,26.8 L53.168,23.896 C53.9040037,23.7999995 54.5319974,23.6200013 55.052,23.356 C55.5720026,23.0919987 55.9199991,22.7360022 56.096,22.288 L50.168,10.288 L54.464,10.288 L58.232,18.448 L60.464,10.288 L64.4,10.288 L61.016,19.672 Z M74.168,10 C75.0000042,10 75.8359958,10.0799992 76.676,10.24 C77.5160042,10.4000008 78.239997,10.6319985 78.848,10.936 L78.272,13.84 C77.7919976,13.647999 77.2440031,13.4840007 76.628,13.348 C76.0119969,13.2119993 75.400003,13.144 74.792,13.144 C73.1599918,13.144 71.8720047,13.5679958 70.928,14.416 C69.9839953,15.2640042 69.512,16.5519914 69.512,18.28 C69.512,20.0080086 69.9839953,21.2959958 70.928,22.144 C71.8720047,22.9920042 73.1599918,23.416 74.792,23.416 C75.400003,23.416 76.0119969,23.3480007 76.628,23.212 C77.2440031,23.0759993 77.7919976,22.912001 78.272,22.72 L78.848,25.624 C78.239997,25.9280015 77.5160042,26.1599992 76.676,26.32 C75.8359958,26.4800008 75.0000042,26.56 74.168,26.56 C72.759993,26.56 71.5200054,26.3520021 70.448,25.936 C69.3759946,25.5199979 68.4800036,24.9440037 67.76,24.208 C67.0399964,23.4719963 66.4960018,22.600005 66.128,21.592 C65.7599982,20.583995 65.576,19.480006 65.576,18.28 C65.576,17.079994 65.7599982,15.976005 66.128,14.968 C66.4960018,13.959995 67.0399964,13.0880037 67.76,12.352 C68.4800036,11.6159963 69.3759946,11.0400021 70.448,10.624 C71.5200054,10.2079979 72.759993,10 74.168,10 Z M90.272,10.288 L94.208,10.288 L94.208,26.272 L90.272,26.272 L90.272,19.936 C89.7439974,20.2560016 89.1160036,20.4839993 88.388,20.62 C87.6599964,20.7560007 86.9040039,20.824 86.12,20.824 C85.3839963,20.824 84.712003,20.728001 84.104,20.536 C83.495997,20.343999 82.9760022,20.0360021 82.544,19.612 C82.1119978,19.1879979 81.7760012,18.6400034 81.536,17.968 C81.2959988,17.2959966 81.176,16.4720049 81.176,15.496 L81.176,10.288 L85.112,10.288 L85.112,14.608 C85.112,15.2640033 85.1679994,15.787998 85.28,16.18 C85.3920006,16.572002 85.5639988,16.8799989 85.796,17.104 C86.0280012,17.3280011 86.3199982,17.4759996 86.672,17.548 C87.0240018,17.6200004 87.4399976,17.656 87.92,17.656 C88.3840023,17.656 88.815998,17.5800008 89.216,17.428 C89.616002,17.2759992 89.9679985,17.1120009 90.272,16.936 L90.272,10.288 Z M107.336,23.176 L101.216,23.176 L100.232,26.272 L96.176,26.272 L102.128,10.288 L106.448,10.288 L112.4,26.272 L108.344,26.272 L107.336,23.176 Z M102.224,20.056 L106.328,20.056 L104.288,13.312 L102.224,20.056 Z M124.472,10.288 L124.472,13.408 L120.176,13.408 L120.176,26.272 L116.24,26.272 L116.24,13.408 L111.944,13.408 L111.944,10.288 L124.472,10.288 Z M126.368,26.272 L126.368,10.288 L130.304,10.288 L130.304,17.944 L135.344,10.288 L139.784,10.288 L134.384,18.184 L140.168,26.272 L135.44,26.272 L130.304,18.448 L130.304,26.272 L126.368,26.272 Z M151.616,23.176 L145.496,23.176 L144.512,26.272 L140.456,26.272 L146.408,10.288 L150.728,10.288 L156.68,26.272 L152.624,26.272 L151.616,23.176 Z M146.504,20.056 L150.608,20.056 L148.568,13.312 L146.504,20.056 Z" id="РУСЧАТКА" fill="#4D6067"></path>
                    <rect id="Rectangle-4" fill="#FFFFFF" x="0" y="0" width="32" height="36"></rect>
                    <g id="Group-3">
                        <g>
                            <rect id="Rectangle-3" fill="#E7C474" x="0" y="0" width="10" height="14"></rect>
                            <rect id="Rectangle-3" fill="#4D6067" x="0" y="15" width="10" height="14"></rect>
                            <rect id="Rectangle-3" fill="#BA877F" x="0" y="30" width="10" height="6"></rect>
                        </g>
                        <g transform="translate(22.000000, 0.000000)">
                            <rect id="Rectangle-3" fill="#E7C474" x="0" y="0" width="10" height="14"></rect>
                            <rect id="Rectangle-3" fill="#4D6067" x="0" y="15" width="10" height="14"></rect>
                            <rect id="Rectangle-3" fill="#BA877F" x="0" y="30" width="10" height="6"></rect>
                        </g>
                        <g transform="translate(16.000000, 18.000000) rotate(180.000000) translate(-16.000000, -18.000000) translate(11.000000, 0.000000)">
                            <rect id="Rectangle-3" fill="#E7C474" x="0" y="0" width="10" height="14"></rect>
                            <rect id="Rectangle-3" fill="#4D6067" x="0" y="15" width="10" height="14"></rect>
                            <rect id="Rectangle-3" fill="#BA877F" x="0" y="30" width="10" height="6"></rect>
                        </g>
                    </g>
                    <g id="Б">
                        <use fill="black" fill-opacity="1" filter="url(#filter-2)" xlink:href="#path-1"></use>
                        <use fill="#FFFFFF" fill-rule="evenodd" xlink:href="#path-1"></use>
                    </g>
                </g>
            </g>
        </g>
    </g>
</svg>